<?xml version="1.0" encoding="UTF-8"?>
<svg xmlns="http://www.w3.org/2000/svg" width="960" height="640" viewBox="0 0 960 640">
<defs>
<linearGradient id="bgGrad" x1="0" y1="0" x2="1" y2="1">
<stop offset="0%" stop-color="#f0fdf4"/>
<stop offset="50%" stop-color="#f8fafc"/>
<stop offset="100%" stop-color="#e0f2fe"/>
</linearGradient>
<filter id="edgeGlow" x="-30%" y="-30%" width="160%" height="160%">
<feGaussianBlur stdDeviation="1.0" result="b"/>
<feMerge><feMergeNode in="b"/><feMergeNode in="SourceGraphic"/></feMerge>
</filter>
<style type="text/css"><![CDATA[
.lbl{font-family:ui-sans-serif,system-ui,Segoe UI,Roboto,sans-serif}
.sub{fill:#475569;font-size:11px}
]]></style>
</defs>
<rect width="100%" height="100%" fill="url(#bgGrad)"/>
<text x="14" y="26" class="lbl" font-size="15" font-weight="700" fill="#0f172a">Road structure preview</text>
<text x="14" y="44" class="sub">Trajectory + inferred centerlines + nodes (diagram, not satellite imagery)</text>
<text x="14" y="630" class="sub">Span ≈ 75 × 1 (input units) · same projection as CSV</text>
<g opacity="0.45" stroke="#94a3b8" stroke-width="0.35">
<line x1="0.0" y1="0" x2="0.0" y2="640" stroke-width="0.9"/>
<line x1="48.0" y1="0" x2="48.0" y2="640" stroke-width="0.35"/>
<line x1="96.0" y1="0" x2="96.0" y2="640" stroke-width="0.35"/>
<line x1="144.0" y1="0" x2="144.0" y2="640" stroke-width="0.35"/>
<line x1="192.0" y1="0" x2="192.0" y2="640" stroke-width="0.35"/>
<line x1="240.0" y1="0" x2="240.0" y2="640" stroke-width="0.9"/>
<line x1="288.0" y1="0" x2="288.0" y2="640" stroke-width="0.35"/>
<line x1="336.0" y1="0" x2="336.0" y2="640" stroke-width="0.35"/>
<line x1="384.0" y1="0" x2="384.0" y2="640" stroke-width="0.35"/>
<line x1="432.0" y1="0" x2="432.0" y2="640" stroke-width="0.35"/>
<line x1="480.0" y1="0" x2="480.0" y2="640" stroke-width="0.9"/>
<line x1="528.0" y1="0" x2="528.0" y2="640" stroke-width="0.35"/>
<line x1="576.0" y1="0" x2="576.0" y2="640" stroke-width="0.35"/>
<line x1="624.0" y1="0" x2="624.0" y2="640" stroke-width="0.35"/>
<line x1="672.0" y1="0" x2="672.0" y2="640" stroke-width="0.35"/>
<line x1="720.0" y1="0" x2="720.0" y2="640" stroke-width="0.9"/>
<line x1="768.0" y1="0" x2="768.0" y2="640" stroke-width="0.35"/>
<line x1="816.0" y1="0" x2="816.0" y2="640" stroke-width="0.35"/>
<line x1="864.0" y1="0" x2="864.0" y2="640" stroke-width="0.35"/>
<line x1="912.0" y1="0" x2="912.0" y2="640" stroke-width="0.35"/>
<line x1="960.0" y1="0" x2="960.0" y2="640" stroke-width="0.9"/>
<line x1="0" y1="0.0" x2="960" y2="0.0" stroke-width="0.9"/>
<line x1="0" y1="32.0" x2="960" y2="32.0" stroke-width="0.35"/>
<line x1="0" y1="64.0" x2="960" y2="64.0" stroke-width="0.35"/>
<line x1="0" y1="96.0" x2="960" y2="96.0" stroke-width="0.35"/>
<line x1="0" y1="128.0" x2="960" y2="128.0" stroke-width="0.35"/>
<line x1="0" y1="160.0" x2="960" y2="160.0" stroke-width="0.9"/>
<line x1="0" y1="192.0" x2="960" y2="192.0" stroke-width="0.35"/>
<line x1="0" y1="224.0" x2="960" y2="224.0" stroke-width="0.35"/>
<line x1="0" y1="256.0" x2="960" y2="256.0" stroke-width="0.35"/>
<line x1="0" y1="288.0" x2="960" y2="288.0" stroke-width="0.35"/>
<line x1="0" y1="320.0" x2="960" y2="320.0" stroke-width="0.9"/>
<line x1="0" y1="352.0" x2="960" y2="352.0" stroke-width="0.35"/>
<line x1="0" y1="384.0" x2="960" y2="384.0" stroke-width="0.35"/>
<line x1="0" y1="416.0" x2="960" y2="416.0" stroke-width="0.35"/>
<line x1="0" y1="448.0" x2="960" y2="448.0" stroke-width="0.35"/>
<line x1="0" y1="480.0" x2="960" y2="480.0" stroke-width="0.9"/>
<line x1="0" y1="512.0" x2="960" y2="512.0" stroke-width="0.35"/>
<line x1="0" y1="544.0" x2="960" y2="544.0" stroke-width="0.35"/>
<line x1="0" y1="576.0" x2="960" y2="576.0" stroke-width="0.35"/>
<line x1="0" y1="608.0" x2="960" y2="608.0" stroke-width="0.35"/>
<line x1="0" y1="640.0" x2="960" y2="640.0" stroke-width="0.9"/>
</g>
<g stroke-linecap="round" stroke-linejoin="round">
<path d="M 66.21 595.86 L 129.87 503.91 L 193.53 365.98 L 257.19 274.02 L 702.81 136.09 L 766.47 90.11 L 830.13 44.14 L 893.79 136.09" fill="none" stroke="#64748b" stroke-width="1.8" stroke-opacity="0.35" stroke-linejoin="round"/>
<circle cx="66.21" cy="595.86" r="1.6" fill="#475569" opacity="0.55"/>
<circle cx="129.87" cy="503.91" r="1.6" fill="#475569" opacity="0.55"/>
<circle cx="193.53" cy="365.98" r="1.6" fill="#475569" opacity="0.55"/>
<circle cx="257.19" cy="274.02" r="1.6" fill="#475569" opacity="0.55"/>
<circle cx="702.81" cy="136.09" r="1.6" fill="#475569" opacity="0.55"/>
<circle cx="766.47" cy="90.11" r="1.6" fill="#475569" opacity="0.55"/>
<circle cx="830.13" cy="44.14" r="1.6" fill="#475569" opacity="0.55"/>
<circle cx="893.79" cy="136.09" r="1.6" fill="#475569" opacity="0.55"/>
<path d="M 66.21 595.86 L 129.87 503.91 L 193.53 365.98 L 257.19 274.02" fill="none" stroke="#cbd5e1" stroke-width="11" stroke-linecap="round" stroke-linejoin="round" opacity="0.95"/>
<path d="M 66.21 595.86 L 129.87 503.91 L 193.53 365.98 L 257.19 274.02" fill="none" stroke="#1e40af" stroke-width="3.2" stroke-linecap="round" stroke-linejoin="round" opacity="0.95" filter="url(#edgeGlow)"/>
<path d="M 702.81 136.09 L 766.47 90.11 L 830.13 44.14 L 893.79 136.09" fill="none" stroke="#cbd5e1" stroke-width="11" stroke-linecap="round" stroke-linejoin="round" opacity="0.95"/>
<path d="M 702.81 136.09 L 766.47 90.11 L 830.13 44.14 L 893.79 136.09" fill="none" stroke="#1e40af" stroke-width="3.2" stroke-linecap="round" stroke-linejoin="round" opacity="0.95" filter="url(#edgeGlow)"/>
<circle cx="66.21" cy="595.86" r="6.5" fill="#b91c1c" stroke="#fff" stroke-width="2"/>
<text x="76.21" y="585.86" font-size="12" class="lbl" fill="#0f172a" font-weight="600" stroke="#ffffff" stroke-width="0.6" paint-order="stroke fill">n0</text>
<circle cx="257.19" cy="274.02" r="6.5" fill="#b91c1c" stroke="#fff" stroke-width="2"/>
<text x="267.19" y="264.02" font-size="12" class="lbl" fill="#0f172a" font-weight="600" stroke="#ffffff" stroke-width="0.6" paint-order="stroke fill">n1</text>
<circle cx="702.81" cy="136.09" r="6.5" fill="#b91c1c" stroke="#fff" stroke-width="2"/>
<text x="712.81" y="126.09" font-size="12" class="lbl" fill="#0f172a" font-weight="600" stroke="#ffffff" stroke-width="0.6" paint-order="stroke fill">n2</text>
<circle cx="893.79" cy="136.09" r="6.5" fill="#b91c1c" stroke="#fff" stroke-width="2"/>
<text x="903.79" y="126.09" font-size="12" class="lbl" fill="#0f172a" font-weight="600" stroke="#ffffff" stroke-width="0.6" paint-order="stroke fill">n3</text>
<rect x="872.3" y="612.0" width="63.7" height="5" rx="1" fill="#1e293b" opacity="0.85"/>
<text x="872.3" y="606.0" class="sub" font-size="10" font-weight="600" fill="#334155">≈ 5 m</text>
<g transform="translate(760,58)">
<rect x="0" y="-18" width="188" height="92" rx="6" fill="#ffffff" stroke="#cbd5e1" stroke-width="1" opacity="0.96"/>
<line x1="10" y1="8" x2="38" y2="8" stroke="#cbd5e1" stroke-width="9" stroke-linecap="round"/>
<line x1="10" y1="8" x2="38" y2="8" stroke="#1e40af" stroke-width="3" stroke-linecap="round"/>
<text x="48" y="12" class="sub" font-size="11" fill="#334155">Road (width + centerline)</text>
<line x1="10" y1="32" x2="38" y2="32" stroke="#64748b" stroke-width="1.5" opacity="0.4"/>
<text x="48" y="36" class="sub" font-size="11" fill="#334155">Raw trajectory</text>
<circle cx="24" cy="56" r="5" fill="#b91c1c" stroke="#fff" stroke-width="1.5"/>
<text x="48" y="60" class="sub" font-size="11" fill="#334155">Node</text>
</g>
</g>
</svg>
