<?xml version="1.0" encoding="UTF-8"?>
<svg xmlns="http://www.w3.org/2000/svg" width="960" height="640" viewBox="0 0 960 640">
<defs>
<linearGradient id="bgGrad" x1="0" y1="0" x2="0" y2="1">
<stop offset="0%" stop-color="#f8fafc"/>
<stop offset="100%" stop-color="#e2e8f0"/>
</linearGradient>
<filter id="edgeGlow" x="-20%" y="-20%" width="140%" height="140%">
<feGaussianBlur stdDeviation="0.8" result="b"/>
<feMerge><feMergeNode in="b"/><feMergeNode in="SourceGraphic"/></feMerge>
</filter>
<style type="text/css"><![CDATA[.muted{fill:#64748b;font-size:11px;font-family:ui-sans-serif,system-ui,sans-serif}]]></style>
</defs>
<rect width="100%" height="100%" fill="url(#bgGrad)"/>
<text x="12" y="22" class="muted" font-size="13" font-weight="600" fill="#0f172a">Road graph preview (trajectory samples + centerlines + nodes)</text>
<text x="12" y="632" class="muted">Local XY · span ≈ 75 × 1 m (same units as input)</text>
<g stroke="#cbd5e1" stroke-width="0.5">
<line x1="0.0" y1="0" x2="0.0" y2="640" />
<line x1="0" y1="0.0" x2="960" y2="0.0" />
<line x1="96.0" y1="0" x2="96.0" y2="640" />
<line x1="0" y1="64.0" x2="960" y2="64.0" />
<line x1="192.0" y1="0" x2="192.0" y2="640" />
<line x1="0" y1="128.0" x2="960" y2="128.0" />
<line x1="288.0" y1="0" x2="288.0" y2="640" />
<line x1="0" y1="192.0" x2="960" y2="192.0" />
<line x1="384.0" y1="0" x2="384.0" y2="640" />
<line x1="0" y1="256.0" x2="960" y2="256.0" />
<line x1="480.0" y1="0" x2="480.0" y2="640" />
<line x1="0" y1="320.0" x2="960" y2="320.0" />
<line x1="576.0" y1="0" x2="576.0" y2="640" />
<line x1="0" y1="384.0" x2="960" y2="384.0" />
<line x1="672.0" y1="0" x2="672.0" y2="640" />
<line x1="0" y1="448.0" x2="960" y2="448.0" />
<line x1="768.0" y1="0" x2="768.0" y2="640" />
<line x1="0" y1="512.0" x2="960" y2="512.0" />
<line x1="864.0" y1="0" x2="864.0" y2="640" />
<line x1="0" y1="576.0" x2="960" y2="576.0" />
<line x1="960.0" y1="0" x2="960.0" y2="640" />
<line x1="0" y1="640.0" x2="960" y2="640.0" />
</g>
<g stroke-linecap="round" stroke-linejoin="round">
<g transform="translate(772,28)">
<rect x="0" y="-14" width="176" height="72" rx="4" fill="white" stroke="#e2e8f0"/>
<line x1="8" y1="8" x2="32" y2="8" stroke="#2563eb" stroke-width="3"/>
<text x="40" y="12" class="muted">Centerline</text>
<circle cx="20" cy="28" r="3" fill="#94a3b8"/>
<text x="40" y="32" class="muted">Trajectory</text>
<circle cx="20" cy="48" r="5" fill="#dc2626" stroke="#fff" stroke-width="1.2"/>
<text x="40" y="52" class="muted">Node</text>
</g>
<circle cx="66.21" cy="595.86" r="2" fill="#94a3b8" opacity="0.85"/>
<circle cx="129.87" cy="503.91" r="2" fill="#94a3b8" opacity="0.85"/>
<circle cx="193.53" cy="365.98" r="2" fill="#94a3b8" opacity="0.85"/>
<circle cx="257.19" cy="274.02" r="2" fill="#94a3b8" opacity="0.85"/>
<circle cx="702.81" cy="136.09" r="2" fill="#94a3b8" opacity="0.85"/>
<circle cx="766.47" cy="90.11" r="2" fill="#94a3b8" opacity="0.85"/>
<circle cx="830.13" cy="44.14" r="2" fill="#94a3b8" opacity="0.85"/>
<circle cx="893.79" cy="136.09" r="2" fill="#94a3b8" opacity="0.85"/>
<path d="M 66.21 595.86 L 129.87 503.91 L 193.53 365.98 L 257.19 274.02" fill="none" stroke="#1d4ed8" stroke-width="3" opacity="0.98" stroke-linecap="round" filter="url(#edgeGlow)"/>
<path d="M 702.81 136.09 L 766.47 90.11 L 830.13 44.14 L 893.79 136.09" fill="none" stroke="#1d4ed8" stroke-width="3" opacity="0.98" stroke-linecap="round" filter="url(#edgeGlow)"/>
<circle cx="66.21" cy="595.86" r="5" fill="#dc2626" stroke="#fff" stroke-width="1.5"/>
<text x="74.21" y="587.86" font-size="11" font-family="sans-serif" fill="#334155">n0</text>
<circle cx="257.19" cy="274.02" r="5" fill="#dc2626" stroke="#fff" stroke-width="1.5"/>
<text x="265.19" y="266.02" font-size="11" font-family="sans-serif" fill="#334155">n1</text>
<circle cx="702.81" cy="136.09" r="5" fill="#dc2626" stroke="#fff" stroke-width="1.5"/>
<text x="710.81" y="128.09" font-size="11" font-family="sans-serif" fill="#334155">n2</text>
<circle cx="893.79" cy="136.09" r="5" fill="#dc2626" stroke="#fff" stroke-width="1.5"/>
<text x="901.79" y="128.09" font-size="11" font-family="sans-serif" fill="#334155">n3</text>
</g>
</svg>
